<svg width="28" height="31" viewBox="0 0 28 31" fill="none" xmlns="http://www.w3.org/2000/svg">
<path d="M14.125 28.875C13.0703 28.875 12.25 28.0547 12.25 27H10.375C10.375 29.1094 12.0156 30.75 14.125 30.75C16.1758 30.75 17.875 29.1094 17.875 27H16C16 28.0547 15.1211 28.875 14.125 28.875ZM26.3711 20.3789C24.7305 18.8555 23.5 17.2148 23.5 11.6484C23.5 7.01953 19.75 3.21094 15.0625 2.74219V1.6875C15.0625 1.21875 14.5938 0.75 14.125 0.75C13.5977 0.75 13.1875 1.21875 13.1875 1.6875V2.74219C8.44141 3.21094 4.69141 7.01953 4.69141 11.6484C4.69141 17.2148 3.46094 18.8555 1.82031 20.3789C1 21.1992 0.765625 22.3711 1.17578 23.4258C1.58594 24.4805 2.64062 25.125 3.8125 25.125H24.4375C25.5508 25.125 26.6055 24.4805 27.0156 23.4258C27.4258 22.3711 27.1914 21.1992 26.3711 20.3789ZM24.4375 23.25H3.8125C2.93359 23.25 2.52344 22.3125 3.10938 21.7266C5.16016 19.793 6.56641 17.625 6.56641 11.6484C6.56641 7.72266 9.96484 4.5 14.125 4.5C18.2266 4.5 21.625 7.72266 21.625 11.6484C21.625 17.625 23.0312 19.793 25.082 21.7266C25.668 22.3125 25.2578 23.25 24.4375 23.25Z" fill="#606162"/>
</svg>
