<svg width="21" height="19" viewBox="0 0 21 19" fill="none" xmlns="http://www.w3.org/2000/svg">
<path d="M20.2148 16.2461L16.1016 0.671875C16.0312 0.390625 15.7148 0.214844 15.3984 0.285156L14.8711 0.425781C14.5898 0.496094 14.4492 0.742188 14.4492 1.02344C14.0625 1.26953 12.1992 1.76172 11.707 1.76172C11.6016 1.51562 11.3203 1.375 11.0742 1.44531L10.6875 1.55078V1.375C10.6875 0.777344 10.1602 0.25 9.28125 0.25H0.84375C0.492188 0.25 0 0.777344 0 1.375V17.125C0 17.7578 0.492188 18.25 0.84375 18.25H9.28125C10.1602 18.25 10.6875 17.7578 10.6875 17.125V4.32812L14.2383 17.8633C14.3086 18.1445 14.625 18.3203 14.9414 18.25L15.4688 18.1094C15.75 18.0391 15.8906 17.793 15.8906 17.5117C16.2773 17.2656 18.1406 16.7734 18.6328 16.7734C18.7383 17.0195 19.0195 17.1602 19.2656 17.0898L19.8281 16.9492C20.1094 16.8438 20.2852 16.5625 20.2148 16.2461ZM4.5 16.5625H1.6875V14.875H4.5V16.5625ZM4.5 13.1875H1.6875V5.3125H4.5V13.1875ZM4.5 3.625H1.6875V1.9375H4.5V3.625ZM9 16.5625H6.1875V14.875H9V16.5625ZM9 13.1875H6.1875V5.3125H9V13.1875ZM9 3.625H6.1875V1.9375H9V3.625ZM15.5039 16.1406L12.0938 3.13281C12.6914 3.0625 14.2383 2.67578 14.8359 2.39453L18.2461 15.4023C17.6484 15.4727 16.1016 15.8594 15.5039 16.1406Z" fill="#223344"/>
</svg>
