<svg width="30" height="30" viewBox="0 0 30 30" fill="none" xmlns="http://www.w3.org/2000/svg">
<g id="Icon/Fill/google">
<path id="Mask" fill-rule="evenodd" clip-rule="evenodd" d="M21.8689 17.4755C21.0364 20.153 18.9614 22.0067 16.2002 22.4155C11.9864 23.0392 7.84894 19.8442 7.52144 15.5942C7.18144 11.1842 10.6602 7.50049 15.0014 7.50049C16.0052 7.50049 16.9627 7.69799 17.8377 8.05549C18.1414 8.17924 18.4852 8.07299 18.6402 7.78549L20.4339 4.47674C20.6039 4.16049 20.4814 3.75299 20.1539 3.60549C18.5827 2.89549 16.8402 2.50049 15.0052 2.50049C7.97769 2.50049 2.30394 8.29549 2.50519 15.3667C2.68894 21.818 8.01394 27.2155 14.4602 27.4892C21.3927 27.7817 27.1427 22.4317 27.4914 15.653C27.5052 15.4055 27.5002 13.9642 27.4952 13.1192C27.4939 12.7742 27.2139 12.5005 26.8702 12.5005H15.6214C15.2764 12.5005 14.9964 12.7792 14.9964 13.1255V16.8505C14.9964 17.1942 15.2764 17.4755 15.6214 17.4755H21.8689Z" fill="white"/>
<mask id="mask0_2_10142" style="mask-type:alpha" maskUnits="userSpaceOnUse" x="2" y="2" width="26" height="26">
<path id="Mask_2" fill-rule="evenodd" clip-rule="evenodd" d="M21.8689 17.4755C21.0364 20.153 18.9614 22.0067 16.2002 22.4155C11.9864 23.0392 7.84894 19.8442 7.52144 15.5942C7.18144 11.1842 10.6602 7.50049 15.0014 7.50049C16.0052 7.50049 16.9627 7.69799 17.8377 8.05549C18.1414 8.17924 18.4852 8.07299 18.6402 7.78549L20.4339 4.47674C20.6039 4.16049 20.4814 3.75299 20.1539 3.60549C18.5827 2.89549 16.8402 2.50049 15.0052 2.50049C7.97769 2.50049 2.30394 8.29549 2.50519 15.3667C2.68894 21.818 8.01394 27.2155 14.4602 27.4892C21.3927 27.7817 27.1427 22.4317 27.4914 15.653C27.5052 15.4055 27.5002 13.9642 27.4952 13.1192C27.4939 12.7742 27.2139 12.5005 26.8702 12.5005H15.6214C15.2764 12.5005 14.9964 12.7792 14.9964 13.1255V16.8505C14.9964 17.1942 15.2764 17.4755 15.6214 17.4755H21.8689Z" fill="white"/>
</mask>
<g mask="url(#mask0_2_10142)">
<g id="&#240;&#159;&#142;&#168; Color">
<rect id="Base" width="30" height="30" fill="white"/>
</g>
</g>
</g>
</svg>
