<svg width="18" height="17" viewBox="0 0 18 17" fill="none" xmlns="http://www.w3.org/2000/svg">
<path d="M9.35156 14.2969C9.14062 14.5078 8.82422 14.5078 8.61328 14.2969L4.78125 10.5H2.39062L7.41797 15.4922C8.29688 16.3359 9.66797 16.3711 10.5469 15.4922L15.5742 10.5H13.1836L9.35156 14.2969ZM12.4453 0.375C11.1797 0.375 9.94922 0.832031 9 1.60547C8.01562 0.832031 6.78516 0.375 5.51953 0.375C3.02344 0.375 0 2.37891 0 5.85938C0 7.19531 0.457031 8.42578 1.30078 9.375H5.41406L6.46875 6.87891L8.47266 11.3086C8.64844 11.7305 9.28125 11.7656 9.49219 11.3438L11.25 7.82812L12.0234 9.375H16.6641C17.5078 8.42578 17.9648 7.19531 17.9648 5.85938C18 2.37891 14.9414 0.375 12.4453 0.375ZM15.3984 8.25H12.6914L11.7422 6.31641C11.5312 5.89453 10.9336 5.89453 10.7227 6.31641L9 9.76172L6.96094 5.22656C6.75 4.76953 6.11719 4.76953 5.94141 5.22656L4.67578 8.25H2.56641C0.492188 5.82422 2.32031 2.0625 5.51953 2.0625C6.60938 2.0625 7.3125 2.30859 9 3.96094C10.793 2.16797 11.4258 2.0625 12.4453 2.0625C15.6445 2.0625 17.4727 5.82422 15.3984 8.25Z" fill="#223344"/>
</svg>
