<svg width="18" height="15" viewBox="0 0 18 15" fill="none" xmlns="http://www.w3.org/2000/svg">
<path d="M15.4375 1.96875C13.7188 0.53125 11.1875 0.75 9.59375 2.40625L9 3.03125L8.375 2.40625C7.09375 1.09375 4.53125 0.28125 2.53125 1.96875C0.5625 3.65625 0.46875 6.65625 2.21875 8.46875L8.28125 14.7188C8.46875 14.9062 8.71875 15 8.96875 15C9.25 15 9.5 14.9062 9.6875 14.7188L15.75 8.46875C17.5 6.65625 17.4062 3.65625 15.4375 1.96875ZM15.0312 7.78125L9 14.0312L2.9375 7.78125C1.75 6.53125 1.5 4.1875 3.1875 2.75C4.90625 1.28125 6.90625 2.34375 7.65625 3.09375L9 4.46875L10.3125 3.09375C11.0312 2.34375 13.0625 1.28125 14.7812 2.75C16.4688 4.1875 16.2188 6.53125 15.0312 7.78125Z" fill="#6EBD1E"/>
</svg>
