<svg width="21" height="17" viewBox="0 0 21 17" fill="none" xmlns="http://www.w3.org/2000/svg">
<path d="M20.0391 7.96875L18 6.28125V2.90625C18 2.76562 17.8594 2.625 17.7188 2.625H16.5938C16.418 2.66016 16.3125 2.76562 16.3125 2.90625V4.91016L11.3555 0.832031C11.0742 0.585938 10.5117 0.410156 10.125 0.410156C9.70312 0.410156 9.14062 0.585938 8.85938 0.832031L0.175781 7.96875C0.0703125 8.07422 0 8.25 0 8.39062C0 8.49609 0.0351562 8.67188 0.105469 8.74219L0.492188 9.19922C0.5625 9.30469 0.773438 9.375 0.914062 9.375C1.01953 9.375 1.19531 9.33984 1.26562 9.26953L2.25 8.46094V15C2.25 15.6328 2.74219 16.125 3.375 16.125H7.875C8.47266 16.125 8.96484 15.6328 9 15V11.3438H11.25V15C11.25 15.6328 11.7422 16.125 12.375 16.125H16.875C17.4727 16.125 17.9648 15.6328 18 15.0352V8.46094L18.9492 9.26953C19.0195 9.33984 19.1953 9.41016 19.3008 9.41016C19.4414 9.41016 19.6523 9.30469 19.7578 9.19922L20.1094 8.74219C20.1797 8.67188 20.25 8.49609 20.25 8.39062C20.25 8.25 20.1445 8.07422 20.0391 7.96875ZM16.2773 14.4375H12.9375V10.7812C12.9023 10.1836 12.4102 9.69141 11.8125 9.65625H8.4375C7.80469 9.69141 7.3125 10.1836 7.3125 10.7812V14.4375H3.9375V7.08984L10.125 1.99219L16.3125 7.08984L16.2773 14.4375Z" fill="#223344"/>
</svg>
