<svg width="30" height="30" viewBox="0 0 30 30" fill="none" xmlns="http://www.w3.org/2000/svg">
<g id="Icon/Fill/linkedin">
<path id="Mask" fill-rule="evenodd" clip-rule="evenodd" d="M3.74942 6.5625C3.74942 5.01 5.00942 3.75 6.56192 3.75C8.11442 3.75 9.37442 5.01 9.37442 6.5625C9.37442 8.115 8.11442 9.375 6.56192 9.375C5.00942 9.375 3.74942 8.115 3.74942 6.5625ZM18.9375 10.5005C14.8988 10.5005 11.6238 13.7555 11.6238 17.768V25.1242C11.6238 25.7455 12.1288 26.2505 12.75 26.2505H15.3738C15.995 26.2505 16.5 25.7455 16.5 25.1242V17.768C16.5 16.348 17.73 15.213 19.19 15.3592C20.4575 15.4855 21.3738 16.6442 21.3738 17.918V25.1242C21.3738 25.7455 21.8788 26.2505 22.5 26.2505H25.1238C25.745 26.2505 26.25 25.7455 26.25 25.1242V17.768C26.25 13.7555 22.975 10.5005 18.9375 10.5005ZM8.24902 11.6248H4.87527C4.25402 11.6248 3.74902 12.1285 3.74902 12.7498V25.1248C3.74902 25.746 4.25402 26.2498 4.87527 26.2498H8.24902C8.87027 26.2498 9.37402 25.746 9.37402 25.1248V12.7498C9.37402 12.1285 8.87027 11.6248 8.24902 11.6248Z" fill="white"/>
<mask id="mask0_2_10152" style="mask-type:alpha" maskUnits="userSpaceOnUse" x="3" y="3" width="24" height="24">
<path id="Mask_2" fill-rule="evenodd" clip-rule="evenodd" d="M3.74942 6.5625C3.74942 5.01 5.00942 3.75 6.56192 3.75C8.11442 3.75 9.37442 5.01 9.37442 6.5625C9.37442 8.115 8.11442 9.375 6.56192 9.375C5.00942 9.375 3.74942 8.115 3.74942 6.5625ZM18.9375 10.5005C14.8988 10.5005 11.6238 13.7555 11.6238 17.768V25.1242C11.6238 25.7455 12.1288 26.2505 12.75 26.2505H15.3738C15.995 26.2505 16.5 25.7455 16.5 25.1242V17.768C16.5 16.348 17.73 15.213 19.19 15.3592C20.4575 15.4855 21.3738 16.6442 21.3738 17.918V25.1242C21.3738 25.7455 21.8788 26.2505 22.5 26.2505H25.1238C25.745 26.2505 26.25 25.7455 26.25 25.1242V17.768C26.25 13.7555 22.975 10.5005 18.9375 10.5005ZM8.24902 11.6248H4.87527C4.25402 11.6248 3.74902 12.1285 3.74902 12.7498V25.1248C3.74902 25.746 4.25402 26.2498 4.87527 26.2498H8.24902C8.87027 26.2498 9.37402 25.746 9.37402 25.1248V12.7498C9.37402 12.1285 8.87027 11.6248 8.24902 11.6248Z" fill="white"/>
</mask>
<g mask="url(#mask0_2_10152)">
<g id="&#240;&#159;&#142;&#168; Color">
<rect id="Base" width="30" height="30" fill="white"/>
</g>
</g>
</g>
</svg>
