<svg width="18" height="19" viewBox="0 0 18 19" fill="none" xmlns="http://www.w3.org/2000/svg">
<path d="M9 6.15625C7.27734 6.15625 5.90625 7.5625 5.90625 9.25C5.90625 10.9727 7.27734 12.3438 9 12.3438C10.6875 12.3438 12.0938 10.9727 12.0938 9.25C12.0938 7.5625 10.6875 6.15625 9 6.15625ZM9 10.6562C8.19141 10.6562 7.59375 10.0586 7.59375 9.25C7.59375 8.47656 8.19141 7.84375 9 7.84375C9.77344 7.84375 10.4062 8.47656 10.4062 9.25C10.4062 10.0586 9.77344 10.6562 9 10.6562ZM17.4375 8.40625H15.6797C15.293 5.38281 12.8672 2.95703 9.84375 2.57031V0.8125C9.84375 0.53125 9.5625 0.25 9.28125 0.25H8.71875C8.40234 0.25 8.15625 0.53125 8.15625 0.8125V2.57031C5.09766 2.95703 2.67188 5.38281 2.28516 8.40625H0.5625C0.246094 8.40625 0 8.6875 0 8.96875V9.53125C0 9.84766 0.246094 10.0938 0.5625 10.0938H2.28516C2.67188 13.1523 5.09766 15.5781 8.15625 15.9648V17.6875C8.15625 18.0039 8.40234 18.25 8.71875 18.25H9.28125C9.5625 18.25 9.84375 18.0039 9.84375 17.6875V15.9648C12.8672 15.5781 15.293 13.1523 15.6797 10.0938H17.4375C17.7188 10.0938 18 9.84766 18 9.53125V8.96875C18 8.6875 17.7188 8.40625 17.4375 8.40625ZM9 14.3125C6.1875 14.3125 3.9375 12.0625 3.9375 9.25C3.9375 6.47266 6.1875 4.1875 9 4.1875C11.7773 4.1875 14.0625 6.47266 14.0625 9.25C14.0625 12.0625 11.7773 14.3125 9 14.3125Z" fill="#223344"/>
</svg>
