<svg width="38" height="32" viewBox="0 0 38 32" fill="none" xmlns="http://www.w3.org/2000/svg">
<path d="M16 5.5C23.207 5.5 29.125 10.1289 29.125 15.8125C29.125 21.4961 23.207 26.125 16 26.125C14.3008 26.125 12.6602 25.8906 11.0781 25.4219L10.1992 25.1289L9.4375 25.6562C8.08984 26.5938 6.03906 27.707 3.46094 28C4.16406 27.1211 5.16016 25.5977 5.80469 23.8984L6.21484 22.7852L5.45312 21.9648C3.75391 20.1484 2.875 18.0391 2.875 15.8125C2.875 10.1289 8.73438 5.5 16 5.5ZM16 3.625C7.67969 3.625 1 9.13281 1 15.8125C1 18.625 2.11328 21.2031 4.04688 23.2539C3.22656 25.5391 1.41016 27.5312 1.35156 27.5312C0.941406 27.9414 0.882812 28.5273 1.05859 29.0547C1.29297 29.582 1.82031 29.875 2.34766 29.875C5.98047 29.875 8.79297 28.4102 10.5508 27.1797C12.25 27.707 14.0664 28 16 28C24.2617 28 31 22.5508 31 15.8125C31 9.13281 24.2617 3.625 16 3.625Z" fill="#606162"/>
<circle cx="30" cy="8" r="8" fill="white"/>
<circle cx="30" cy="8" r="8" fill="white"/>
<circle cx="30" cy="8" r="4" fill="white"/>
<circle cx="30" cy="8" r="4" fill="#80DE21"/>
</svg>
