<svg width="16" height="17" viewBox="0 0 16 17" fill="none" xmlns="http://www.w3.org/2000/svg">
<path d="M14.0625 4.3125C13.1133 4.3125 12.375 5.08594 12.375 6C12.375 6.94922 13.1133 7.6875 14.0625 7.6875C14.9766 7.6875 15.75 6.94922 15.75 6C15.75 5.08594 14.9766 4.3125 14.0625 4.3125ZM5.0625 3.75C5.97656 3.75 6.75 3.01172 6.75 2.0625C6.75 1.14844 5.97656 0.375 5.0625 0.375C4.11328 0.375 3.375 1.14844 3.375 2.0625C3.375 3.01172 4.11328 3.75 5.0625 3.75ZM10.6875 3.75C11.6016 3.75 12.375 3.01172 12.375 2.0625C12.375 1.14844 11.6016 0.375 10.6875 0.375C9.73828 0.375 9 1.14844 9 2.0625C9 3.01172 9.73828 3.75 10.6875 3.75ZM12.9023 9.83203C11.9883 9.30469 11.25 7.6875 10.5469 6.38672C9.98438 5.40234 8.92969 4.875 7.875 4.875C6.78516 4.875 5.73047 5.40234 5.16797 6.38672C4.46484 7.6875 3.76172 9.30469 2.8125 9.83203C1.79297 10.4297 1.125 11.5195 1.125 12.75C1.125 14.6133 2.60156 16.125 4.5 16.125C4.53516 16.125 4.57031 16.125 4.60547 16.125C6.32812 16.125 7.03125 15 7.875 15C8.68359 15 9.38672 16.125 11.1094 16.125C11.1445 16.125 11.1797 16.125 11.25 16.125C13.1133 16.125 14.625 14.6133 14.625 12.75C14.625 11.5195 13.9219 10.4297 12.9023 9.83203ZM11.25 14.4375H11.2148H11.1797H11.1094C10.5469 14.4375 10.1953 14.2617 9.73828 13.9805C9.24609 13.6992 8.64844 13.3125 7.875 13.3125C7.06641 13.3125 6.46875 13.6992 5.97656 13.9805C5.51953 14.2617 5.16797 14.4375 4.60547 14.4375H4.53516H4.5C3.55078 14.4375 2.8125 13.6992 2.8125 12.75C2.8125 12.1523 3.12891 11.625 3.65625 11.3086C4.85156 10.6406 5.58984 9.23438 6.29297 7.89844C6.43359 7.65234 6.53906 7.44141 6.64453 7.23047C6.99609 6.63281 7.66406 6.5625 7.875 6.5625C8.05078 6.5625 8.71875 6.63281 9.07031 7.23047C9.17578 7.44141 9.28125 7.65234 9.38672 7.86328C10.125 9.23438 10.8633 10.6406 12.0586 11.3086C12.5859 11.625 12.9375 12.1523 12.9375 12.75C12.9375 13.6992 12.1641 14.4375 11.25 14.4375ZM3.375 6C3.375 5.08594 2.60156 4.3125 1.6875 4.3125C0.738281 4.3125 0 5.08594 0 6C0 6.94922 0.738281 7.6875 1.6875 7.6875C2.60156 7.6875 3.375 6.94922 3.375 6Z" fill="#223344"/>
</svg>
