<svg width="31" height="31" viewBox="0 0 31 31" fill="none" xmlns="http://www.w3.org/2000/svg">
<path d="M29.7656 28.9922L22.207 21.4336C22.0898 21.3164 21.9141 21.2578 21.7383 21.2578H21.0938C23.1445 19.0312 24.375 16.1602 24.375 12.9375C24.375 6.25781 18.8672 0.75 12.1875 0.75C5.44922 0.75 0 6.25781 0 12.9375C0 19.6758 5.44922 25.125 12.1875 25.125C15.3516 25.125 18.2812 23.8945 20.4492 21.9023V22.4883C20.4492 22.7227 20.5078 22.8984 20.625 23.0156L28.1836 30.5742C28.4766 30.8672 28.8867 30.8672 29.1797 30.5742L29.7656 29.9883C30.0586 29.6953 30.0586 29.2852 29.7656 28.9922ZM12.1875 23.25C6.44531 23.25 1.875 18.6797 1.875 12.9375C1.875 7.25391 6.44531 2.625 12.1875 2.625C17.8711 2.625 22.5 7.25391 22.5 12.9375C22.5 18.6797 17.8711 23.25 12.1875 23.25Z" fill="#606162"/>
</svg>
