<svg width="19" height="14" viewBox="0 0 19 14" fill="none" xmlns="http://www.w3.org/2000/svg">
<path d="M3.375 0.5C1.51172 0.5 0 2.01172 0 3.875V10.625C0 12.4883 1.51172 14 3.375 14H6.32812C6.53906 14 6.75 13.8242 6.75 13.5781V12.7344C6.75 12.5234 6.53906 12.3125 6.32812 12.3125H3.375C2.42578 12.3125 1.6875 11.5742 1.6875 10.625V3.875C1.6875 2.96094 2.42578 2.1875 3.375 2.1875H6.32812C6.53906 2.1875 6.75 2.01172 6.75 1.76562V0.921875C6.75 0.710938 6.53906 0.5 6.32812 0.5H3.375ZM11.4961 1.20312L10.793 1.90625C10.6172 2.04688 10.6172 2.32812 10.793 2.50391L14.7656 6.33594H6.04688C5.80078 6.33594 5.625 6.54688 5.625 6.75781V7.74219C5.625 7.98828 5.80078 8.16406 6.04688 8.16406H14.7656L10.793 12.0312C10.6172 12.207 10.6172 12.4883 10.793 12.6289L11.4961 13.332C11.6367 13.5078 11.918 13.5078 12.0938 13.332L17.8594 7.56641C18.0352 7.39062 18.0352 7.14453 17.8594 6.96875L12.0938 1.20312C11.918 1.02734 11.6367 1.02734 11.4961 1.20312Z" fill="#223344"/>
</svg>
