<svg display="none" xmlns="http://www.w3.org/2000/svg">

  <symbol id="bell" viewBox="0 0 17 19">
    <path d="M16.4336 13.0117C15.7656 12.2734 14.4648 11.1836 14.4648 7.5625C14.4648 4.85547 12.5664 2.67578 9.96484 2.11328V1.375C9.96484 0.777344 9.47266 0.25 8.875 0.25C8.24219 0.25 7.75 0.777344 7.75 1.375V2.11328C5.14844 2.67578 3.25 4.85547 3.25 7.5625C3.25 11.1836 1.94922 12.2734 1.28125 13.0117C1.07031 13.2227 0.964844 13.5039 1 13.75C1 14.3477 1.42188 14.875 2.125 14.875H15.5898C16.293 14.875 16.7148 14.3477 16.75 13.75C16.75 13.5039 16.6445 13.2227 16.4336 13.0117ZM3.35547 13.1875C4.09375 12.2383 4.90234 10.5859 4.9375 7.59766C4.9375 7.59766 4.9375 7.59766 4.9375 7.5625C4.9375 5.41797 6.69531 3.625 8.875 3.625C11.0195 3.625 12.8125 5.41797 12.8125 7.5625C12.8125 7.59766 12.7773 7.59766 12.7773 7.59766C12.8125 10.5859 13.6211 12.2383 14.3594 13.1875H3.35547ZM8.875 18.25C10.1055 18.25 11.0898 17.2656 11.0898 16H6.625C6.625 17.2656 7.60938 18.25 8.875 18.25Z" fill="#223344"/>
  </symbol>

  <symbol id="books" viewBox="0 0 21 19">
    <path d="M20.2148 16.2461L16.1016 0.671875C16.0312 0.390625 15.7148 0.214844 15.3984 0.285156L14.8711 0.425781C14.5898 0.496094 14.4492 0.742188 14.4492 1.02344C14.0625 1.26953 12.1992 1.76172 11.707 1.76172C11.6016 1.51562 11.3203 1.375 11.0742 1.44531L10.6875 1.55078V1.375C10.6875 0.777344 10.1602 0.25 9.28125 0.25H0.84375C0.492188 0.25 0 0.777344 0 1.375V17.125C0 17.7578 0.492188 18.25 0.84375 18.25H9.28125C10.1602 18.25 10.6875 17.7578 10.6875 17.125V4.32812L14.2383 17.8633C14.3086 18.1445 14.625 18.3203 14.9414 18.25L15.4688 18.1094C15.75 18.0391 15.8906 17.793 15.8906 17.5117C16.2773 17.2656 18.1406 16.7734 18.6328 16.7734C18.7383 17.0195 19.0195 17.1602 19.2656 17.0898L19.8281 16.9492C20.1094 16.8438 20.2852 16.5625 20.2148 16.2461ZM4.5 16.5625H1.6875V14.875H4.5V16.5625ZM4.5 13.1875H1.6875V5.3125H4.5V13.1875ZM4.5 3.625H1.6875V1.9375H4.5V3.625ZM9 16.5625H6.1875V14.875H9V16.5625ZM9 13.1875H6.1875V5.3125H9V13.1875ZM9 3.625H6.1875V1.9375H9V3.625ZM15.5039 16.1406L12.0938 3.13281C12.6914 3.0625 14.2383 2.67578 14.8359 2.39453L18.2461 15.4023C17.6484 15.4727 16.1016 15.8594 15.5039 16.1406Z" fill="#223344"/>
  </symbol>

  <symbol id="heartbeat" viewBox="0 0 18 17">
    <path d="M9.35156 14.2969C9.14062 14.5078 8.82422 14.5078 8.61328 14.2969L4.78125 10.5H2.39062L7.41797 15.4922C8.29688 16.3359 9.66797 16.3711 10.5469 15.4922L15.5742 10.5H13.1836L9.35156 14.2969ZM12.4453 0.375C11.1797 0.375 9.94922 0.832031 9 1.60547C8.01562 0.832031 6.78516 0.375 5.51953 0.375C3.02344 0.375 0 2.37891 0 5.85938C0 7.19531 0.457031 8.42578 1.30078 9.375H5.41406L6.46875 6.87891L8.47266 11.3086C8.64844 11.7305 9.28125 11.7656 9.49219 11.3438L11.25 7.82812L12.0234 9.375H16.6641C17.5078 8.42578 17.9648 7.19531 17.9648 5.85938C18 2.37891 14.9414 0.375 12.4453 0.375ZM15.3984 8.25H12.6914L11.7422 6.31641C11.5312 5.89453 10.9336 5.89453 10.7227 6.31641L9 9.76172L6.96094 5.22656C6.75 4.76953 6.11719 4.76953 5.94141 5.22656L4.67578 8.25H2.56641C0.492188 5.82422 2.32031 2.0625 5.51953 2.0625C6.60938 2.0625 7.3125 2.30859 9 3.96094C10.793 2.16797 11.4258 2.0625 12.4453 2.0625C15.6445 2.0625 17.4727 5.82422 15.3984 8.25Z" fill="#223344"/>
  </symbol>

  <symbol id="home" viewBox="0 0 21 17">
    <path d="M20.0391 7.96875L18 6.28125V2.90625C18 2.76562 17.8594 2.625 17.7188 2.625H16.5938C16.418 2.66016 16.3125 2.76562 16.3125 2.90625V4.91016L11.3555 0.832031C11.0742 0.585938 10.5117 0.410156 10.125 0.410156C9.70312 0.410156 9.14062 0.585938 8.85938 0.832031L0.175781 7.96875C0.0703125 8.07422 0 8.25 0 8.39062C0 8.49609 0.0351562 8.67188 0.105469 8.74219L0.492188 9.19922C0.5625 9.30469 0.773438 9.375 0.914062 9.375C1.01953 9.375 1.19531 9.33984 1.26562 9.26953L2.25 8.46094V15C2.25 15.6328 2.74219 16.125 3.375 16.125H7.875C8.47266 16.125 8.96484 15.6328 9 15V11.3438H11.25V15C11.25 15.6328 11.7422 16.125 12.375 16.125H16.875C17.4727 16.125 17.9648 15.6328 18 15.0352V8.46094L18.9492 9.26953C19.0195 9.33984 19.1953 9.41016 19.3008 9.41016C19.4414 9.41016 19.6523 9.30469 19.7578 9.19922L20.1094 8.74219C20.1797 8.67188 20.25 8.49609 20.25 8.39062C20.25 8.25 20.1445 8.07422 20.0391 7.96875ZM16.2773 14.4375H12.9375V10.7812C12.9023 10.1836 12.4102 9.69141 11.8125 9.65625H8.4375C7.80469 9.69141 7.3125 10.1836 7.3125 10.7812V14.4375H3.9375V7.08984L10.125 1.99219L16.3125 7.08984L16.2773 14.4375Z" fill="#223344"/>
  </symbol>

  <symbol id="location" viewBox="0 0 18 19">
    <path d="M9 6.15625C7.27734 6.15625 5.90625 7.5625 5.90625 9.25C5.90625 10.9727 7.27734 12.3438 9 12.3438C10.6875 12.3438 12.0938 10.9727 12.0938 9.25C12.0938 7.5625 10.6875 6.15625 9 6.15625ZM9 10.6562C8.19141 10.6562 7.59375 10.0586 7.59375 9.25C7.59375 8.47656 8.19141 7.84375 9 7.84375C9.77344 7.84375 10.4062 8.47656 10.4062 9.25C10.4062 10.0586 9.77344 10.6562 9 10.6562ZM17.4375 8.40625H15.6797C15.293 5.38281 12.8672 2.95703 9.84375 2.57031V0.8125C9.84375 0.53125 9.5625 0.25 9.28125 0.25H8.71875C8.40234 0.25 8.15625 0.53125 8.15625 0.8125V2.57031C5.09766 2.95703 2.67188 5.38281 2.28516 8.40625H0.5625C0.246094 8.40625 0 8.6875 0 8.96875V9.53125C0 9.84766 0.246094 10.0938 0.5625 10.0938H2.28516C2.67188 13.1523 5.09766 15.5781 8.15625 15.9648V17.6875C8.15625 18.0039 8.40234 18.25 8.71875 18.25H9.28125C9.5625 18.25 9.84375 18.0039 9.84375 17.6875V15.9648C12.8672 15.5781 15.293 13.1523 15.6797 10.0938H17.4375C17.7188 10.0938 18 9.84766 18 9.53125V8.96875C18 8.6875 17.7188 8.40625 17.4375 8.40625ZM9 14.3125C6.1875 14.3125 3.9375 12.0625 3.9375 9.25C3.9375 6.47266 6.1875 4.1875 9 4.1875C11.7773 4.1875 14.0625 6.47266 14.0625 9.25C14.0625 12.0625 11.7773 14.3125 9 14.3125Z" fill="#223344"/>
  </symbol>

  <symbol id="myprofile" viewBox="0 0 16 17">
    <path d="M14.0625 4.3125C13.1133 4.3125 12.375 5.08594 12.375 6C12.375 6.94922 13.1133 7.6875 14.0625 7.6875C14.9766 7.6875 15.75 6.94922 15.75 6C15.75 5.08594 14.9766 4.3125 14.0625 4.3125ZM5.0625 3.75C5.97656 3.75 6.75 3.01172 6.75 2.0625C6.75 1.14844 5.97656 0.375 5.0625 0.375C4.11328 0.375 3.375 1.14844 3.375 2.0625C3.375 3.01172 4.11328 3.75 5.0625 3.75ZM10.6875 3.75C11.6016 3.75 12.375 3.01172 12.375 2.0625C12.375 1.14844 11.6016 0.375 10.6875 0.375C9.73828 0.375 9 1.14844 9 2.0625C9 3.01172 9.73828 3.75 10.6875 3.75ZM12.9023 9.83203C11.9883 9.30469 11.25 7.6875 10.5469 6.38672C9.98438 5.40234 8.92969 4.875 7.875 4.875C6.78516 4.875 5.73047 5.40234 5.16797 6.38672C4.46484 7.6875 3.76172 9.30469 2.8125 9.83203C1.79297 10.4297 1.125 11.5195 1.125 12.75C1.125 14.6133 2.60156 16.125 4.5 16.125C4.53516 16.125 4.57031 16.125 4.60547 16.125C6.32812 16.125 7.03125 15 7.875 15C8.68359 15 9.38672 16.125 11.1094 16.125C11.1445 16.125 11.1797 16.125 11.25 16.125C13.1133 16.125 14.625 14.6133 14.625 12.75C14.625 11.5195 13.9219 10.4297 12.9023 9.83203ZM11.25 14.4375H11.2148H11.1797H11.1094C10.5469 14.4375 10.1953 14.2617 9.73828 13.9805C9.24609 13.6992 8.64844 13.3125 7.875 13.3125C7.06641 13.3125 6.46875 13.6992 5.97656 13.9805C5.51953 14.2617 5.16797 14.4375 4.60547 14.4375H4.53516H4.5C3.55078 14.4375 2.8125 13.6992 2.8125 12.75C2.8125 12.1523 3.12891 11.625 3.65625 11.3086C4.85156 10.6406 5.58984 9.23438 6.29297 7.89844C6.43359 7.65234 6.53906 7.44141 6.64453 7.23047C6.99609 6.63281 7.66406 6.5625 7.875 6.5625C8.05078 6.5625 8.71875 6.63281 9.07031 7.23047C9.17578 7.44141 9.28125 7.65234 9.38672 7.86328C10.125 9.23438 10.8633 10.6406 12.0586 11.3086C12.5859 11.625 12.9375 12.1523 12.9375 12.75C12.9375 13.6992 12.1641 14.4375 11.25 14.4375ZM3.375 6C3.375 5.08594 2.60156 4.3125 1.6875 4.3125C0.738281 4.3125 0 5.08594 0 6C0 6.94922 0.738281 7.6875 1.6875 7.6875C2.60156 7.6875 3.375 6.94922 3.375 6Z" fill="#223344"/>
  </symbol>

  <symbol id="settings" viewBox="0 0 18 19">
    <path d="M15.8906 8.58203L17.0156 7.94922C17.332 7.77344 17.5078 7.38672 17.4023 7C17.0156 5.52344 16.207 4.1875 15.1523 3.09766C14.8711 2.85156 14.4492 2.78125 14.1328 2.95703L13.0078 3.625C12.7266 3.41406 12.1992 3.09766 11.8477 2.95703V1.65625C11.8477 1.30469 11.5664 0.917969 11.2148 0.847656C9.77344 0.460938 8.19141 0.460938 6.75 0.847656C6.36328 0.953125 6.11719 1.26953 6.11719 1.65625V2.95703C5.76562 3.09766 5.23828 3.41406 4.95703 3.625L3.83203 2.95703C3.51562 2.78125 3.09375 2.85156 2.8125 3.09766C1.75781 4.1875 0.949219 5.52344 0.5625 7C0.457031 7.38672 0.632812 7.77344 0.949219 7.94922L2.07422 8.58203C2.03906 8.79297 2.03906 9.07422 2.03906 9.25C2.03906 9.46094 2.03906 9.74219 2.07422 9.91797L0.949219 10.5859C0.632812 10.7617 0.457031 11.1484 0.5625 11.5352C0.949219 13.0117 1.75781 14.3477 2.8125 15.4375C3.09375 15.6836 3.51562 15.7539 3.83203 15.5781L4.95703 14.9102C5.23828 15.1211 5.76562 15.4375 6.11719 15.5781V16.8789C6.11719 17.2305 6.39844 17.6172 6.75 17.6875C8.19141 18.0742 9.77344 18.0742 11.2148 17.6875C11.6016 17.582 11.8477 17.2656 11.8477 16.8789V15.5781C12.1992 15.4375 12.7266 15.1211 13.0078 14.9102L14.1328 15.5781C14.4492 15.7539 14.8711 15.6836 15.1523 15.4375C16.207 14.3477 17.0156 13.0117 17.4023 11.5352C17.5078 11.1484 17.332 10.7617 17.0156 10.5859L15.8906 9.91797C15.9258 9.49609 15.9258 9.03906 15.8906 8.58203ZM14.0273 10.832L15.5742 11.7109C15.3633 12.3438 14.8008 13.2578 14.3789 13.75L12.832 12.8711C11.707 13.8203 11.5664 13.9258 10.1602 14.418V16.2109C9.84375 16.2461 9.31641 16.3164 9 16.3164C8.64844 16.3164 8.12109 16.2461 7.80469 16.2109V14.418C6.39844 13.9258 6.22266 13.8203 5.13281 12.8711L3.58594 13.75C3.16406 13.2578 2.60156 12.3438 2.39062 11.7109L3.9375 10.832C3.65625 9.35547 3.65625 9.17969 3.9375 7.70312L2.39062 6.82422C2.67188 6.08594 3.05859 5.38281 3.58594 4.78516L5.13281 5.66406C6.25781 4.71484 6.39844 4.60938 7.80469 4.11719V2.32422C8.12109 2.28906 8.64844 2.21875 9 2.21875C9.31641 2.21875 9.84375 2.28906 10.1602 2.32422V4.11719C11.5664 4.60938 11.7422 4.71484 12.832 5.66406L14.3789 4.78516C14.8008 5.27734 15.3633 6.19141 15.5742 6.82422L14.0273 7.70312C14.3086 9.17969 14.3086 9.35547 14.0273 10.832ZM9 5.875C7.13672 5.875 5.625 7.42188 5.625 9.25C5.625 11.1133 7.13672 12.625 9 12.625C10.8281 12.625 12.375 11.1133 12.375 9.25C12.375 7.42188 10.8281 5.875 9 5.875ZM9 10.9375C8.05078 10.9375 7.3125 10.1992 7.3125 9.25C7.3125 8.33594 8.05078 7.5625 9 7.5625C9.91406 7.5625 10.6875 8.33594 10.6875 9.25C10.6875 10.1992 9.91406 10.9375 9 10.9375Z" fill="#223344"/>
  </symbol>

  <symbol id="signout" viewBox="0 0 19 14">
    <path d="M3.375 0.5C1.51172 0.5 0 2.01172 0 3.875V10.625C0 12.4883 1.51172 14 3.375 14H6.32812C6.53906 14 6.75 13.8242 6.75 13.5781V12.7344C6.75 12.5234 6.53906 12.3125 6.32812 12.3125H3.375C2.42578 12.3125 1.6875 11.5742 1.6875 10.625V3.875C1.6875 2.96094 2.42578 2.1875 3.375 2.1875H6.32812C6.53906 2.1875 6.75 2.01172 6.75 1.76562V0.921875C6.75 0.710938 6.53906 0.5 6.32812 0.5H3.375ZM11.4961 1.20312L10.793 1.90625C10.6172 2.04688 10.6172 2.32812 10.793 2.50391L14.7656 6.33594H6.04688C5.80078 6.33594 5.625 6.54688 5.625 6.75781V7.74219C5.625 7.98828 5.80078 8.16406 6.04688 8.16406H14.7656L10.793 12.0312C10.6172 12.207 10.6172 12.4883 10.793 12.6289L11.4961 13.332C11.6367 13.5078 11.918 13.5078 12.0938 13.332L17.8594 7.56641C18.0352 7.39062 18.0352 7.14453 17.8594 6.96875L12.0938 1.20312C11.918 1.02734 11.6367 1.02734 11.4961 1.20312Z" fill="#223344"/>
  </symbol>

  <symbol id="user" viewBox="0 0 18 18">
    <path d="M8.71875 3.90625C6.85547 3.90625 5.34375 5.41797 5.34375 7.28125C5.34375 9.14453 6.85547 10.6562 8.71875 10.6562C10.582 10.6562 12.0938 9.14453 12.0938 7.28125C12.0938 5.41797 10.582 3.90625 8.71875 3.90625ZM8.71875 8.96875C7.76953 8.96875 7.03125 8.23047 7.03125 7.28125C7.03125 6.36719 7.76953 5.59375 8.71875 5.59375C9.63281 5.59375 10.4062 6.36719 10.4062 7.28125C10.4062 8.23047 9.63281 8.96875 8.71875 8.96875ZM8.71875 0.53125C3.90234 0.53125 0 4.43359 0 9.25C0 14.0664 3.90234 17.9688 8.71875 17.9688C13.5352 17.9688 17.4375 14.0664 17.4375 9.25C17.4375 4.43359 13.5352 0.53125 8.71875 0.53125ZM8.71875 16.2812C6.96094 16.2812 5.34375 15.6484 4.11328 14.5938C4.64062 13.7852 5.55469 13.2227 6.57422 13.2227C7.3125 13.4336 8.01562 13.5391 8.71875 13.5391C9.38672 13.5391 10.0898 13.4336 10.8281 13.2227C11.8477 13.2578 12.7617 13.7852 13.2891 14.5938C12.0586 15.6484 10.4414 16.2812 8.71875 16.2812ZM14.4141 13.3281C13.5703 12.2383 12.2344 11.5 10.7227 11.5C10.3711 11.5 9.80859 11.8516 8.71875 11.8516C7.59375 11.8516 7.03125 11.5 6.67969 11.5C5.16797 11.5 3.83203 12.2383 2.98828 13.3281C2.14453 12.2031 1.6875 10.7969 1.6875 9.25C1.6875 5.38281 4.81641 2.21875 8.71875 2.21875C12.5859 2.21875 15.75 5.38281 15.75 9.25C15.75 10.7969 15.2578 12.2031 14.4141 13.3281Z" fill="#223344"/>
  </symbol>

</svg>