<svg width="18" height="18" viewBox="0 0 18 18" fill="none" xmlns="http://www.w3.org/2000/svg">
<path d="M8.71875 3.90625C6.85547 3.90625 5.34375 5.41797 5.34375 7.28125C5.34375 9.14453 6.85547 10.6562 8.71875 10.6562C10.582 10.6562 12.0938 9.14453 12.0938 7.28125C12.0938 5.41797 10.582 3.90625 8.71875 3.90625ZM8.71875 8.96875C7.76953 8.96875 7.03125 8.23047 7.03125 7.28125C7.03125 6.36719 7.76953 5.59375 8.71875 5.59375C9.63281 5.59375 10.4062 6.36719 10.4062 7.28125C10.4062 8.23047 9.63281 8.96875 8.71875 8.96875ZM8.71875 0.53125C3.90234 0.53125 0 4.43359 0 9.25C0 14.0664 3.90234 17.9688 8.71875 17.9688C13.5352 17.9688 17.4375 14.0664 17.4375 9.25C17.4375 4.43359 13.5352 0.53125 8.71875 0.53125ZM8.71875 16.2812C6.96094 16.2812 5.34375 15.6484 4.11328 14.5938C4.64062 13.7852 5.55469 13.2227 6.57422 13.2227C7.3125 13.4336 8.01562 13.5391 8.71875 13.5391C9.38672 13.5391 10.0898 13.4336 10.8281 13.2227C11.8477 13.2578 12.7617 13.7852 13.2891 14.5938C12.0586 15.6484 10.4414 16.2812 8.71875 16.2812ZM14.4141 13.3281C13.5703 12.2383 12.2344 11.5 10.7227 11.5C10.3711 11.5 9.80859 11.8516 8.71875 11.8516C7.59375 11.8516 7.03125 11.5 6.67969 11.5C5.16797 11.5 3.83203 12.2383 2.98828 13.3281C2.14453 12.2031 1.6875 10.7969 1.6875 9.25C1.6875 5.38281 4.81641 2.21875 8.71875 2.21875C12.5859 2.21875 15.75 5.38281 15.75 9.25C15.75 10.7969 15.2578 12.2031 14.4141 13.3281Z" fill="#223344"/>
</svg>
