<svg width="18" height="18" viewBox="0 0 18 18" fill="none" xmlns="http://www.w3.org/2000/svg">
<path d="M8.71875 0.53125C3.90234 0.53125 0 4.43359 0 9.25C0 14.0664 3.90234 17.9688 8.71875 17.9688C13.5352 17.9688 17.4375 14.0664 17.4375 9.25C17.4375 4.43359 13.5352 0.53125 8.71875 0.53125ZM8.71875 3.90625C10.4062 3.90625 11.8125 5.3125 11.8125 7C11.8125 8.72266 10.4062 10.0938 8.71875 10.0938C6.99609 10.0938 5.625 8.72266 5.625 7C5.625 5.3125 6.99609 3.90625 8.71875 3.90625ZM8.71875 16C6.64453 16 4.78125 15.0859 3.55078 13.6094C4.21875 12.3789 5.51953 11.5 7.03125 11.5C7.10156 11.5 7.17188 11.5352 7.27734 11.5703C7.73438 11.7109 8.19141 11.7812 8.71875 11.7812C9.21094 11.7812 9.70312 11.7109 10.125 11.5703C10.2305 11.5352 10.3008 11.5 10.4062 11.5C11.8828 11.5 13.1836 12.3789 13.8516 13.6094C12.6211 15.0859 10.7578 16 8.71875 16Z" fill="#6EBD1E"/>
</svg>
